<?xml version="1.0" encoding="UTF-8"?>
<svg id="Layer_2" data-name="Layer 2" xmlns="http://www.w3.org/2000/svg" viewBox="0 0 324.84 325.1">
  <defs>
    <style>
      .cls-1 {
        fill: #fae7a4;
      }

      .cls-2 {
        fill: #f7cabb;
      }

      .cls-3 {
        fill: #5d759b;
      }

      .cls-4 {
        fill: #f6ce5f;
      }

      .cls-5 {
        fill: #e0a149;
      }

      .cls-6 {
        fill: #e9ada9;
      }
    </style>
  </defs>
  <g id="Layer_1-2" data-name="Layer 1">
    <g>
      <path class="cls-5" d="M136.38,62.79c5.02-15.27,15.71-25.36,25.67-37.32,1.68-.65,5.52,5.89,6.73,7.28,3.11,3.56,6.12,6.38,9.05,10.3,5.48,7.33,10.21,15.24,12.31,24.28,3.34-2.1,5.36-4.95,8.77-7.25,2.94-1.98,6.42-3.68,9.68-5.05,2.27-.95,15.8-5.84,16.8-3.67.37.8-2.62,10.17-2.83,12.3-1.22,12.25.51,18.88-5.25,30.94-1.96,4.09-5.51,7.07-7.42,10.94,7.8,1.27,16.52,9.15,19.75,16.19,3.06,6.67.86,3.45-3.41,3.25-9.14-.44-17.52,2.67-26.38,4.2,5.47,3.86,8.85,5.68,11.01,12.3.36,1.1.63.6.65.65.09.29-.04.9,0,1.3.02.26.03.53.32.65.04.42-.01.87,0,1.3.02.93-.1,2.02,0,2.91.07.59-.13,1.45,0,1.94.11.44.59.55.65.65.05.1.45.32.65.65-.66.93-.41,1.09.65.97,1.55,2.73,1.81,2.11,2.27,5.5.06.42-.06.88,0,1.3.01.11-.01.22,0,.32-1.59.15-.41,4,.97,3.56,4.15,7.71,2.67,4.96.36,12.24-3.84,12.11-7.16,24.52-11.36,36.5-2.67,7.62-1.7,8.76-9.4,12.45-12.01,5.77-27.59,6.15-40.8,5.5h-2.27c-8.25-.58-19.58-2.94-27.09-6.42-.7-.33-5.42-2.88-5.65-3.17-.61-.8-4.4-11.38-5.06-13.24-3.03-8.6-5.18-17.99-8.36-26.69-2.85-7.8-7.34-8.57-2.09-16.53l.65-.65c.41-.55,1.54-1.69,1.58-1.86.15-.68-.28-1.02-.28-1.21v-5.5c0-1.38,2.4-5.31,3.24-6.64l.32-.32c.08-.12.24-.2.32-.32,2.03-3.05,1.47-.89,2.59-5.18.26-.97.39-1.97.65-2.91.05-.18-.05-.47,0-.65l.65-.97c.94-2.28,1.64-3.34,3.24-5.18.23-.26,3.64-2.6,3.55-3.08l-.55-.41c-6.49-.97-13.45-4-20.02-3.96-2.4,0-5.02,1.14-6.94,1.3-.1,0-.22,0-.32,0,0-3.12,3.53-7.97,5.5-10.68l4.86-4.53c.29-.19.72-.49.97-.65,3.44-2.08,6.46-3.82,10.37-5.02-4.83-4.58-7.49-10.49-10.37-16.35-.05-.19.05-.46,0-.65-.57-2.36-1.63-6.03-1.91-8.28-1.09-8.7.73-18.04-3.27-26.04-.01-.22.01-.43,0-.65-.02-.37.08-.78-.32-.97-.01-.21-.02-.44,0-.65,2.33-.58,5.75-.1,8.09.32,5.59,1,13.33,4.78,18.46,7.45,1.46,1.87,3.71,2.92,5.5,4.53.45.4,2.4,3.95,3.55,3.23.69-1.35.57-3.32.97-4.55ZM177.83,50.48c-1.07-2.39-14.4-18.52-15.53-18.13-18.76,17.58-36.22,49.17-15.55,71.87-5.2-18.31,5.11-30.91,14.99-44.59l.99-.33c.94.15,10.07,13.58,11.16,15.36,2.22,3.64,3.26,5.24,4.27,9.49,1.64,6.88,1.98,14.06-.65,20.72.54.59,2.73-2.3,2.91-2.59.05-.08-.05-.24,0-.32.93-.3.94-1.07,1.3-1.62,10.02-15.48,6.58-33.33-2.59-48.24-.13-.2.12-.75-.65-.65-.13-.39.36-1.16-.65-.97ZM125.27,64.19c-5.82-4.05-12.79-6.32-19.65-7.87,2.04,6.55.58,13.44,1.34,20.19,2.45,21.82,17.92,35.15,39.78,34.53-7.71-6.97-11.83-15.31-12.94-25.75-.37-3.48.31-9.94-.3-12.62-.2-.92-7.26-7.81-8.23-8.48ZM219.27,56.31c-6.66-.58-26.64,10.79-27.53,16.99-.6,4.17.26,9.26-.36,13.88-1.18,8.69-6.16,18.03-13.34,23.17l-.21.99c18.89.5,35.31-10.48,39.4-29.4,1.87-8.61.33-17,2.04-25.63ZM166.31,71.39c-.49-.63-3.25-4.68-3.54-4.72-8.16,8.36-14.28,18.3-13.06,30.55,2.06,20.65,22.48,21.45,25.5.67,1.55-10.69-2.62-18.43-8.9-26.5ZM105.3,116.21c-1.74,1.55-3.71,2.81-4.53,5.18.4.32,4.95.19,5.83.33,4.95.75,9.8,2.64,14.77,3.2,10.5,1.2,21-1.11,27.97-9.35-5.3-.56-10.68-.26-15.93-1.39-9.09-1.97-10.82-7.36-21.26-2.94-2.67,1.12-4.73,3.09-6.85,4.97ZM219.18,115.03c-12.99-10.52-15.51-3.52-27.42-.91-5.52,1.21-11.55,1.02-17.17,1.61,6.45,5.26,14.16,9.83,22.82,9.9,9.12.08,17.55-4.99,26.72-4.56-1.22-1.96-3.19-4.62-4.95-6.04ZM160.67,148.26c16.92-4.71,30.4-20.99,8.31-31.32-1.84.02-.17,3.06-.26,4.25-1.56,22.01-55.84,12.68-57.56,35.68-.08,1.01.81,8,2.23,6.61.5-4.97,5.89-6.25,10.04-6.8.14-.02.27-.19.32-.32,1.38-.12,2.84-.13,4.21-.32.51-.07.61-.32.65-.32.86-.12,1.73-.2,2.59-.32.62-.09,1.2-.26,1.62-.32,10.74-1.59,17.06-3.67,27.2-6.48.25-.08.51-.06.65-.34ZM162.14,126.11c1.87-2.08,4.33-7.8.33-8.62-8.82-1.79-12.64,5.59-20.13,9.04-8.72,4.02-22.58,3.46-24.4,15.26,9.18-6.51,21.04-5.69,31.39-8.92,3.22-1.01,10.59-4.29,12.81-6.76ZM193.04,134.99c-.95-4.03-4.62-7.17-8.74-7.45,1.29,20.32-28.44,27.42-43.92,30.39-5.27,1.01-23.02,1.01-24,8.06-.7,5.02,5.88,5.78,9.32,6.23.05.13.19.31.32.32,17.49,1.77,63.55-10.54,67.35-30.76.36-1.94.4-3.72.32-5.68-.02-.61.33-1.29-.65-1.11ZM212.15,157.65c-.45-4.17-4.48-4.68-4.98-5.91-.15-.38.69-6.39.42-8.15-.77-5.06-6.52-9.93-11.31-11.19,5.33,11.25-3.67,21.3-12.33,27.33-4.5,3.13-9.62,5.32-14.22,8.28,11.78,3.15,24.8,3.3,35.94-1.94.19.27.17.12.32,0,2.6-2.1,5.46-3.27,6.15-7.12.19-1.04.09-.51,0-1.3ZM188.18,185.17c.87-4.11,6.81-6.03,10.54-5.84,1.31.07,4.55,1.34,4.79,1.28.27-.08,2.33-3.07,3.87-3.92,1.79-.98,4.34-1.06,5.58-1.87,2.08-1.37,4.81-8.96,1.24-9.67-.54-.11-7.13,4.77-9.46,5.66-10.6,4.06-20.22,3.88-30.92,2.02-2.54-.44-7.73-2.56-9.75-2.55-2.81.02-9.21,3.27-11.75,3.88-8.77,2.08-30.75,5.1-37.66-1.44-1.64-1.55-6.64-11.93-7.67-4.47-.95,6.91,5.85,5.94,9.69,8.29,2.24,1.37,3.56,4.9,3.83,5.07.44.26,5.62-2.84,9.84-1.92,2.92.63,6.09,4.51,6.5,4.53.27,0,3.12-2.25,3.99-2.51,3.77-1.13,9.82-.05,11.76,3.39l1.09.08c3.26-5.6,13.87-5,17.2.6,4.86-5.22,12.35-6.54,17.29-.61ZM129.26,220.46l-10.84-36.91c-1.82-2.92-4.06-4.77-7.61-5.17l12.63,38.04c-.11,1.54,5.52,4.37,5.82,4.04ZM212.79,178.7c-2.26,0-4.84,1.64-6.15,3.4-2.37,3.18-6.35,18.46-7.61,23.15-1.35,5.03-2.61,10.13-3.72,15.22.56.55,4.42-1.61,4.93-2.35l12.55-39.42ZM201.71,183.63c-1.61-3.29-11.32.7-11.74,4.46l-6.32,35.61c2.88,0,5.57-.96,8.12-2.16.67-4.58,10.8-36.14,9.94-37.91ZM131.72,184.66c-2.83-2.01-9.58-2.97-9.19,1.57l10.03,34.66c.51,1.37,7.73,2.81,8.02,2.5l-5.71-34.6c-.32-1.53-1.96-3.29-3.15-4.13ZM181.58,184.67c-4.4-1.18-7.15,2.71-8.79,6.32l-2.08,34.66,9.69-.99,6.07-35.83c-.21-1.63-3.47-3.78-4.89-4.16ZM146.64,184.64c-2.37-.59-7.36,1.25-8.14,3.79-.38,1.24.64,7.08.88,8.8,1.22,8.86,3.38,17.68,4.51,26.57.91,1.43,7.58,1.33,9.44,1.81l.54-.78-1.96-35.28c-.45-1.51-3.84-4.56-5.27-4.91ZM157.11,225.64c1.73.17,9.9.93,10.61-.19l1.67-35.56c-2.62-5.69-10.72-6.62-13.72-.81-1.05,12.09.97,24.43,1.44,36.56Z"/>
      <path class="cls-5" d="M197.25,4.18c28.98,5.62,58.44,21.59,79,42.74,6.13,6.31,12.39,14.18,17.48,21.37,23.2,32.74,36.34,81.87,29.14,121.42-.07.36-.83,1.13,0,1.62-.02,1.59-.47,2.1-.65,3.24v1.3c-3.03,18.03-7.25,31.21-14.89,47.59l-.32.97c-11.34,23.99-30.2,47.01-51.62,62.68-3.47,2.54-21.32,14.36-24.6,14.04-2.74-.27-1.75-3.88-.32-5.45,1.64-1.8,11.53-6.52,14.56-8.59,7.22-4.93,14.38-10.84,20.86-16.7,10.65-9.63,17.78-17.97,25.58-30.11,3.98-6.19,7.44-12.14,10.68-18.78,14.48-29.61,19.76-62.42,15.54-95.19-1.82-14.13-5.33-27.51-10.36-40.8-5.66-14.96-13.61-29.85-23.96-42.09-3.95-6.11-10.23-11.66-15.54-16.51C221.6,4.72,164.03-2.72,105.3,16.82c-2.07.69-4.46,1.03-6.15,2.59-.09.04-.23-.04-.32,0-9.4,3.66-16.59,8.61-24.61,14.25-1.21.6-3.09,1.05-3.56,2.59-.07.05-.25-.05-.32,0-2.37,1.71-4.57,2.79-6.48,5.18-3.58,2.7-7.19,5.91-10.36,9.39-2.58,1.96-3.26,3.16-5.18,5.5-1.24.94-.69.83-1.3,1.62-1.73,1.97-2.52,2.28-4.21,4.86-1.89,2.14-3.09,3.75-4.86,6.15C-.26,120.82-3.11,193.18,27.59,249.29c1.38,2.53,1.76,3.66,3.56,5.83.4.98.11,2.33,1.62,2.59,8.48,14.22,22.75,29.69,35.43,40.03,3.4,2.77,7.55,5.76,11.2,8.21,3.34,2.24,14.5,7.9,16.16,9.58,3.8,3.82.17,5.53-4.18,3.85-15.67-6.05-35.73-25.45-47.6-37.39-1.22-2.36-3.85-5.03-5.83-6.8-7.76-11-15.09-21.63-20.72-34-1.63-3.57-3.81-8.94-5.18-12.63-5.58-15.06-9.33-32.19-10.36-48.24-.1-1.54-.32-3.93-.32-5.34v-17.81c0-.75.27-2.38.32-3.4,1.48-27.71,9.67-50.44,22.66-74.47,5.03-7.33,10.03-14.71,15.54-21.69,6.68-8.46,13.09-14.73,21.37-21.37,1.03-.83,2.21-1.81,3.24-2.59,11.4-8.65,22.22-15.39,35.62-20.72C131.47.46,164.05-2.25,197.25,4.18Z"/>
      <path class="cls-3" d="M172.65,276.48c-4.98,7.55-21.96,17.19-22.02,1.3-8.23,11.17-24.95,13.69-19.26-5.83,1.91-6.57,5.91-13.72,7.94-20.39h9.07l-9.63,25.82c-.33,5.72,4.21,3.36,7.04,1.22,8.07-6.1,10.56-18.21,14.61-26.99l9.68.12c-1.44,4.34-12.19,24.85-10.28,28.07,2.55,4.31,10.42-4.65,12.03-6.58,5.06-6.05,8.14-12.85,11.2-20.05h-5.83c.43-6.04,5.26-2.26,7.61-3.88,1.37-.95,4.12-10.36,4.69-10.36h8.42l-4.53,10.68h8.74c-.29,2.42-.38,2.7-2.27,3.24l-1.3.32c-1.62.08-3.33-.5-5.18-.32l-.32.32c-.3.06-.66-.04-.97,0-.04-.48-.15-.42-.32,0-1.87,4.63-10.44,21.37-9.89,24.96.94,6.17,8.33.56,10.54-1.48,4.87-4.5,20.07-27.72,23.88-28.89,1.29-.4,3.13-.71,4.37,0,2.88,1.63-2.54,4.75-3.09,5.84-3.9,7.83,7.07,16.68-.06,26.47-5.16,7.08-22.57,10.09-23.32-2.28-4.17,4.88-8.44,9.25-15.54,8.41-5.04-.6-6.75-5.16-6.01-9.71l.62-.02.19-1.59c-.52.41-.71.99-.81,1.61ZM210.69,256.73v.32l.16-.16-.16-.16ZM204.05,270.33c-.14,2.44-2.66,3.89-3.22,6-2.02,7.56,8.1,8.56,10.63,1.89,2.2-5.82-2.32-14.45-.94-20.84l-9.38,12.14,2.59.48.32.33Z"/>
      <path class="cls-3" d="M110.37,228.36c17.25,4.22,20.97,23.55,15.06,38.31-6.87,17.16-24.18,21.72-41.25,19.12-2.28-.35-6.47-2.27-8.18-2.19-1.28.06-3.27,1.53-4.68,1.82-3.44.72-10.05.62-9.43-4.56.65-5.37,10.83.03,15.23-3.57,9.67-7.9,13.58-40.27,28.42-43.45,6.32-1.36.91,1.79-.75,4.43-8.55,13.58-9.08,34.18-25.07,42.43,22.08,6.71,37.97-5.28,39.79-27.71,2.68-33.12-44.05-25.56-46.83-2.79-.73,5.96,1.65,13.78,8.98,12.71-2.48,5.1-11.77,3.23-14.21-1.26-4.45-8.17-.04-19.31,6.26-25.15,8.6-8,25.48-10.88,36.66-8.14Z"/>
      <path class="cls-3" d="M243.55,251.55c-1.15,4.46-12.24,24.6-11.19,27.85,1.49,4.61,8.81-2.61,10.22-4.16,1.25-1.38,5.26-7.84,5.98-8.19,5.14-2.55-3.06,8.72-3.52,9.3-3.13,3.94-8.77,9.46-14,9.79-18.33,1.14,2.35-27.16,3.28-34.28l9.23-.31Z"/>
      <path class="cls-6" d="M168.44,292.34c.68-.16,4.53-1.5,4.86-.8l-4.21,19.58c.39.43,9.09-4.64,8.12-6.92l-1.6-.56.15-1.29,9.84.53-11.93,8.12c1.61,4.63,3.36,11.58,9.67,10.81,1.79,1.31-5.2,3.91-8.76,1.79-3.19-1.91-4.97-14.54-6.69-7.04-.76,3.32-.98,4.76,1.37,7.2-.62,1.14-8.34.64-9.89.31.11-1.92,1.87-1.46,2.81-3.5.59-1.29,5.33-22.38,5.26-23.59-.13-2.57-5.49-2.68-1.92-4.31,1.09.18,1.9-.08,2.92-.33Z"/>
      <path class="cls-6" d="M105.3,318.57c-7.16-17.67,12.68-32.88,28.34-22.99l-2.66,9.72-1.11-.2c.58-9.33-8.23-12.95-15.15-7.06-10.8,9.18-3.5,30.82,10.45,22.09,1.55-.97,4.55-6.61,5.71-5.45.4.4-.48,2.99-.74,3.63-3.42,8.58-19.74,8.47-24.51.58-.08-.12-.23-.21-.33-.32Z"/>
      <path class="cls-6" d="M153.87,318.25c-.4.19-.32.61-.32.97-.03,1.66,0,.94.65,1.3.73.41.34.31.97,0,.79-.39,2.56-3.51,3.41-2.28,1.43,2.09-7.92,10.41-9.67,5.14-.54-1.63.19-2.5.11-3.84-.12-1.9-.59-.05-.65,0-2.52,2.22-3.64,5.48-7.93,5.53-11.54.13-6.08-20.7,4.03-23.18,5.72-1.41,7.83,1.88,8.27,1.79.43-.09,3.54-4.51,4.88-1.93.38.74-3.39,14.16-3.75,16.5ZM149.89,304.74c-5.76-4.57-12.35,9.01-10.27,14.63,2.95,7.96,15.28-10.65,10.27-14.63ZM149.33,318.57v-.64h-.32v.64h.32Z"/>
      <path class="cls-6" d="M192.07,321.16c.72.41.23.55,1.62.65.21.01.44.01.65,0,.47-.03,1.47-.4,1.94-.65.1-.05.22-.23.32-.32.11-.11.22-.21.32-.32,1.79-.39,4.46-5.34,5.19-2.75.37,1.33-3.93,5.49-5.29,6.04-17.01,6.9-15.85-16.85-3.45-21.58,11.01-4.21,14.49,5.85,5.39,10.25-1.48.71-8.87,2.42-9.12,2.85-1.09,1.86.71,4.86,2.43,5.83ZM199.1,304.1c-3.21-3.3-9.28,5.35-9.29,8.32,3.07.34,13.29-4.21,9.29-8.32Z"/>
      <path class="cls-6" d="M205.35,318.57c.28-1.27-.07-4.46,1.74-3.85.96.58.47,6.7,4,7.66,3.02.82,5.12-1.49,4.48-4.47-1.02-4.7-9.67-4.22-7.31-11.83,1.51-4.88,9.8-5.34,13.8-3.72.23,1.18-.48,8.78-2.95,6.17-1.09-1.16-.25-6.74-5.47-4.51-6.17,2.63,4.48,7.67,5.4,9.46,4.07,7.92-3.09,11.48-10.12,10.91l-1.94-.32c-3.64-.91-2.24-1.02-1.94-3.89,0-.15.24-1.32.31-1.61Z"/>
      <path class="cls-5" d="M245.17,77.03c.92,3.86,1.34,10.5,5.27,12.52.34.18,4.62.33,4.45,1.88-9.86,2.01-7.16,6.49-9.72,13.12l-.97-.15c.3-7.2-2.34-12.25-10.03-12.8,2.3-2.15,5.51-1.04,7.77-4.37,1.97-2.9,1.81-9.48,2.27-10.2.02-.05.76.04.96,0Z"/>
      <path class="cls-1" d="M229.63,121.71c2.18.24,2.85,4.91,1.05,5.16-2.32.33-7.49-1.62-10.94-1.3-2.42.22-6.94,2.07-9.13,2.53-2.67.57-5.5.56-8.18,1.06-.44,1.55,2.42,1.8,2.58,1.94.14.13-.13,1.16.01,1.29.11.1.93-.13,1.19.11,1.81,1.68,4.82,4.5,4.64,7.02l.64-.64c-.39,1.33,1.18,3.69,1.32,4.67.28,1.88-.36,4.56,0,6.41.22,1.13,2.47,1.42,2.56,1.54.8,1.07,1.11,5.98,1.3,7.23.05.3.62.1.65.38.07.61-1.15.44-.63,2.17.19.62,1.68,1.06,1.76,1.21.15.29,2.03,4.53,2.08,4.79.69,3.85-3.81,12.99-5.14,17.15-.26.81.24,2.48.01,3.12-.14.37-1.07.2-1.17.5-1.1,3.41-1.67,7.46-2.76,10.79-.12.38-1.13.76-1.26,1.14-1.75,5.38-3.22,10.9-5.18,16.51-.27.77.24,2.23-.07,2.95-.09.21-1.1.21-1.2.41-.27.53.25,1.28-.26,1.93-.23.3-6.11,2.74-6.91,2.56,7.7-3.7,6.73-4.83,9.4-12.45,4.2-11.98,7.52-24.39,11.36-36.5,2.31-7.29,3.79-4.53-.36-12.24-.41-.76-1.23-1.39-1.26-1.51-.13-.47.36-1.35.29-2.06-.01-.11.01-.22,0-.32v-1.3c-.45-3.39-.72-2.77-2.27-5.5-.35-.62-.56-.82-.65-.97-.2-.33-.59-.55-.65-.65l-.65-.65c-.13-.49.07-1.36,0-1.94v-2.91c-.01-.43.04-.87,0-1.3-.02-.27-.03-.53-.32-.65-.04-.39.09-1,0-1.3l-.65-.65c-2.16-6.62-5.54-8.44-11.01-12.3,8.86-1.53,17.24-4.65,26.38-4.2,4.29.23,6.49,3.45,3.43-3.23ZM209.72,201.69v.32l.16-.16-.16-.16Z"/>
      <path class="cls-5" d="M74.22,124.95c.08-.44.23-2.26.97-1.94.57,5.89,1.26,10.98,8.42,11.34l-6.48,3.88-.32-.65c-.05.31.06.7,0,.97-.03.1.02.22,0,.32-1.17.1-1.36,2.27-1.29,3.06l-1.3-.15c-1.59-5.35-3.36-4.91-8.09-6.97,1.62-1.38,3.73-.93,5.5-2.42,2.4-2.02,2.05-4.06,2.59-6.8.04-.19-.04-.44,0-.64Z"/>
      <path class="cls-5" d="M76.16,73.8c.68,3.69.37,6.04,4.53,7.77l1.15,2.28c-.59.69-2.47.17-3,.4-2.03.89-2.39,4.72-4.63,4.76-.26-1.15-2.26-3.58-3.24-4.21l.65-.65c-.6-.08-1.38.11-1.94,0-.2-.04-.45.04-.65,0-.83-.19-2.89-.56-3.23-1.45,6.81-1.43,7.51-2.97,8.74-9.23l1.62.33Z"/>
      <path class="cls-2" d="M302.16,241.51c.11-1.26.83-3.8,1.31-4.94,5.11-12.13,9.84-24.68,12.26-37.99.39-2.16.06-8.12.66-9.96.17-.53,1.15-.24,1.32-.77.43-1.31-.16-7.02-.03-9.02.05-.76.64-1.24.69-2.23.48-10.14-.66-20.2-.67-30.3,4.21,32.79-1.07,65.6-15.54,95.21Z"/>
      <path class="cls-3" d="M243.5,233.82c6.12-.76,6.1,7.37,1.46,9.58-8.29,3.95-9.16-8.62-1.46-9.58Z"/>
      <path class="cls-2" d="M37.96,275.18c1.98,1.77,4.61,4.44,5.83,6.8,11.87,11.94,31.93,31.34,47.6,37.39,4.34,1.68,7.97-.03,4.18-3.85-1.66-1.68-12.82-7.34-16.16-9.58,3.1-.15,3.25,3.54,6.47,2.59l-.64.64c1.61.62,11.99,5.9,12.2,6.57.51,1.69.41,4.61-1.44,5.39-6.58.21-11.09-4.81-16.06-7.95-4.23-2.68-8.71-4.74-12.63-7.87-.55-.44-1.26-2.93-2.79-2.29l.64-.64c-2.74-.18-4.55-3.3-6.47-4.96-.74-.64-3.58-2.13-4.31-2.81-.6-.56-.8-2.01-1.51-2.7-.65-.64-.85-.86-1.41-1.42-1.47-1.49-4.24-3.18-5.5-4.63-.33-.38-.11-.9-.43-1.33-.25-.33-1.6-.55-1.68-.67-.28-.44.11-1.57-.06-1.89-1.08-1.09-2.13-.92-2.22-1.01-.32-.31-.18-1.48-.5-1.78-.73-.72-2.09-1.15-2.38-1.51-.24-.29-.66-2.38-.73-2.49Z"/>
      <path class="cls-1" d="M100.12,12.93c1.36-1.63,3.96-1.95,5.77-2.67.16-.06-.09-.79.24-.92.45-.17,1.57.23,2.17,0,1.91-.71,3.96-2.08,6.07-1.93l-.64-.64c2.31.88,3.53-.94,4.77-1.28,1.36-.37,3.99-1.03,5.41-1.34,1.05-.23,3.28.33,4.17.04.53-.17.24-1.15.77-1.32,1.01-.33,3.83.26,5.14.04,18.24-3.04,43.34-4.63,61.75-.01.1.02,1.76.94,1.53,1.28C164.05-2.25,131.47.46,100.12,12.93Z"/>
      <path class="cls-2" d="M177.83,43.04c1.89-.42,2.56,2.69,3.35,3.77.34.46,1.35,1.05,1.7,1.52.51.67.07,2.99,1.41,1.19.54.16,3.54,9.5,4,10.59.48,1.14,2.89,2.03,2.18,5.58l.96-.22c.56-2.65,2.83-2.36,3.23-2.69.07-.06-.28-.95.79-1.78,1.5-1.16,5.01-2.78,6.79-3.68.29-.15.13-.91.22-.95.59-.27,1.71.17,2.31-.07.84-.33,1.23-2.16,3.81-1.27-3.26,1.37-6.75,3.07-9.68,5.05-3.41,2.3-5.43,5.16-8.77,7.25-2.09-9.05-6.82-16.96-12.3-24.29Z"/>
      <path class="cls-2" d="M267.84,46.92c5.31,4.85,11.59,10.4,15.54,16.51,10.35,12.25,18.3,27.13,23.96,42.09-.89-.03-.85.34-1.29-.49-.52-.97-.96-4.25-1.33-5.08-2.99-6.83-7.54-14.1-11.51-20.45-.44-.71-1.14-3.32-1.42-3.76-.08-.13-1.12.13-1.24-.05-1.27-1.99-2.74-5.23-3.93-7.4-1.69.55-1.36-1.46-2.05-2.48-.83-1.22-.99-2.09-1.18-2.38-1.98-2.34-5.58-5.92-7.77-8.19-.25-.26-1.12-.23-1.83-.97-.25-.25.02-1.17-.22-1.42-.82-.83-1.54-.66-2.37-1.5-.23-.24-.01-1.05-.13-1.17-.26-.23-3.92-1.25-3.23-3.26Z"/>
      <path class="cls-2" d="M291.47,260.29c-7.8,12.14-14.93,20.48-25.58,30.11-.35-1.94,2.03-2.33,3-3.24.38-.36.22-1.18.53-1.48.56-.57,2.56-1.23,3.5-2.48.3-.4-.02-1.39.1-1.54.08-.1,1.22.11,1.3.01.16-.2-.23-1.49.07-1.9.13-.19,2.83-1.19,3.7-2.11.13-.14,1.01-2.5,1.38-2.91,2.8-3.16,6.82-6.61,8.58-10.77l3.42-3.69Z"/>
      <path class="cls-1" d="M74.22,124.95v-3.24c2.51-.49,1.58,3.63,1.96,4.95.14.48,2.4,5.47,2.65,5.66,1.43,1.05,5.28.33,5.78,1.86.64,1.93-5.82,2.62-7.04,4.81-1.19,2.13.2,5.88-1.4,8.47-2.58-.32-1.94-2.37-1.95-4.38.1.41.5,4.05,1.29,3.24.54-2.5.69-4.94,1.3-7.45.02-.1-.03-.22,0-.32l.32-.32,6.48-3.88c-7.16-.36-7.85-5.44-8.42-11.34-.74-.32-.89,1.5-.97,1.94Z"/>
      <path class="cls-1" d="M238.37,140.82c.87,5.04,1.45,4.75,4.86,7.44-.31.35-3.76,1.77-3.88,1.95-.18.27.16,1.93-.08,2.67-1.61,4.93-2.93-3.04-3.17-3.32-.12-.15-3.03-.66-3.24-1.79.43-1.83,2.07-1.25,2.36-1.46,2.86-2.2.14-4.25,3.15-5.49ZM242.26,147.62c-3.15.19-4.49-2.75-4.37-5.51-.3,2.71-1.18,5.44-4.38,5.67,3.21.65,4.36,2.49,4.38,5.67.79-3.39.93-4.58,4.37-5.83Z"/>
      <path class="cls-2" d="M105.3,88.37c-2.36-.88-1.9-4.7-1.95-6.8l-.64.64c-.99-5.73-.17-11.73-.64-17.66-.26-3.27-1.85-7.26-1.96-10.51,3.99,8,2.18,17.34,3.27,26.04.29,2.26,1.35,5.92,1.92,8.29Z"/>
      <path class="cls-1" d="M94.29,126.25c1.93-.16,4.54-1.29,6.94-1.3,6.57-.04,13.53,2.99,20.02,3.96l.55.41c.09.47-3.33,2.82-3.55,3.08-.55-1.89,1.49-1.02,1.62-2.43.12-1.23-6.82-1.83-8.1-1.79l.64-.64c-5.54-1.13-10.29-2.1-15.95-1.28-.12.02-1.86,1.85-2.17-.01Z"/>
      <path class="cls-2" d="M1.69,153.77c-.05,1.02-.32,2.65-.32,3.4v17.81c0,1.41.22,3.8.32,5.34-.6.06-1.29-3.45-1.31-3.71-.45-5.06-.55-16.44-.01-21.42.08-.72.57-1.36,1.32-1.42Z"/>
      <path class="cls-1" d="M244.2,77.03s-.04-.64.17-.66h.8v.66c-.2.04-.94-.05-.97,0-.46.72-.3,7.3-2.27,10.2-2.26,3.33-5.47,2.22-7.77,4.37,7.7.54,10.34,5.6,10.03,12.8l.97.15c-.08.21.1.88,0,.97-1.98,1.81-1.86-5.83-1.96-6.23-.25-.97-1.99-2.29-1.41-4.15-2.69-2.06-9.11-1.45-8.28-5.48h4.53c.06,0-.15-.99.11-1.19,1.24-.96,2.08-.62,2.39-.86,3.01-2.34,1.88-7.69,2.66-10.4.12-.39.9-.09,1-.18Z"/>
      <path class="cls-2" d="M276.25,46.92c1.33,0,3.95,2.75,5.07,3.99.24.26,0,1.04.12,1.17.12.14.95-.2,1.31.22.65.74,2.43,4.19,3.33,5.18,2.09.97,1.54,1.53,2.66,2.99.54.69,2.34,2.16,3.01,3.21.24.37-.16,1.69.03,2.02.1.17,2.92.07,1.94,2.59-5.08-7.19-11.33-15.06-17.47-21.37Z"/>
      <path class="cls-1" d="M39.9,57.61c-5.52,6.98-10.51,14.36-15.54,21.69,2.2-4.07,4.29-8.78,7.09-12.75.19-.27,1.25-.1,1.87-.95.12-.17.67-2.7.76-2.81.1-.14,1.18.12,1.29-.01.1-.13-.13-.89.1-1.19.84-1.06,3.27-3.98,4.43-3.98Z"/>
      <path class="cls-1" d="M105.3,89.01c2.88,5.86,5.54,11.77,10.37,16.35-3.9,1.2-6.93,2.94-10.37,5.02,2.63-2.45,5.46-4.56,9.07-5.34-1.93-1.63-4.55-4.57-5.72-6.74-1.01-1.89-2.81-7.18-3.35-9.29Z"/>
      <path class="cls-4" d="M80.69,81.57c1.05.44,2.51.56,3.66.72l.55.74c-1.75,1.66-4.82,1.41-6.48,3.31-1.61,1.84-2.4,6.17-2.42,8.52l-1.13.32c-.97-1.76-.32-3.95-.65-5.5-.04-.2.04-.45,0-.65,2.24-.04,2.6-3.87,4.63-4.76.52-.23,2.41.28,3-.4l-1.16-2.3Z"/>
      <path class="cls-4" d="M89.11,102.29c.22-.5.09-2.72,1.13-2.91.94,2.53.98,3.61,3.73,4.7-.43,1.61-2.1,1.21-2.91,1.78-.99.7-.26,1.3-.97,1.62-.21-.37-.28-1.85-.35-1.92-.17-.15-.93.05-1.27-.02-.14-.9-.69-.53-.66-1.1.05-.97.87-1.17,1.3-2.15Z"/>
      <path class="cls-2" d="M98.83,19.4l.48.65c-2.15-.84-2.25,1.67-3.17,2.15-.81.43-5.18,1.26-5.49,1.42-5.57,2.89-10.95,7.29-16.43,10.02,8.01-5.63,15.2-10.58,24.61-14.24Z"/>
      <path class="cls-2" d="M63.86,41.42c-.11.14.18,1.12-.07,1.54-.16.26-4.39,2.99-5.07,3.57-.69.59-2.82,3.54-3.59,4.12-.49.37-1.49.06-1.62.16-2.7,2.96-1.68,2.84-5.18,5.5-.09.11.16.97-.05,1.24-.21.27-1.12.24-1.25.38-.47.62-2.05,3.55-2.4,3.91-.59.62-1.75.87-1.81.94-1.34,2.05-.46,1.81-2.81,4.31-.22.24-.3,1.61-2.04,1.84,1.77-2.4,2.97-4.01,4.86-6.15,1.69-2.58,2.48-2.88,4.21-4.86.61-.79.06-.68,1.3-1.62,1.92-2.34,2.6-3.55,5.18-5.5,3.15-3.47,6.76-6.68,10.34-9.38Z"/>
      <path class="cls-2" d="M17.23,241.19c-.88.68-1.9-1.51-1.92-1.63-.23-1.03.9-.34.64-1.12-.17-.49-1.84-2.16-1.93-2.35-.23-.5.15-2.12-.02-2.35-.08-.1-1.22.1-1.3,0-.16-.21-.55-4.57-.64-5.18,1.36,3.69,3.55,9.05,5.17,12.63Z"/>
      <path class="cls-2" d="M99.8,51.78c.38-3.28,2.49-1.11,3.71-.95,1.49.2,3.65-.65,4.39,1.27-2.35-.42-5.77-.9-8.1-.32Z"/>
      <path class="cls-4" d="M76.81,138.87c-.61,2.51-.76,4.94-1.3,7.45-.79.81-1.19-2.83-1.29-3.24-.09-.37.1-.96,0-1.3l1.3.15c-.07-.78.12-2.95,1.29-3.06Z"/>
      <path class="cls-1" d="M104.33,111.03l-4.86,4.53c-1.97,2.72-5.5,7.57-5.5,10.68-.3,0-.62.09-.91-.05-1.74-1.66,5.09-9.4,6.42-10.64,2.11-2.91,1.95-2.6,4.85-4.52Z"/>
      <path class="cls-1" d="M74.22,125.6c-.54,2.74-.19,4.77-2.59,6.8.67-1.58.84-6.64,2.59-6.8Z"/>
      <path class="cls-1" d="M136.38,62.79c-.41,1.23-.28,3.2-.98,4.53-1.15.72-3.11-2.83-3.55-3.23h.97c.66.6.75,2.08,2.27,1.62l1.29-2.92Z"/>
      <path class="cls-1" d="M69.69,84.16c.24.57,1.02.47,1.3.65.97.63,2.98,3.06,3.24,4.21.04.2-.04.45,0,.65-2.2.4-.87-.96-1.32-1.7-1.02-1.7-3.12-1.96-3.87-3.81.19.04.45-.04.65,0Z"/>
      <path class="cls-1" d="M70.33,36.24c.63,1.74-2.33,2.09-3.12,2.7-1.13.87-2.43,1.78-3.35,2.48,1.9-2.4,4.1-3.47,6.47-5.18Z"/>
      <path class="cls-6" d="M89.11,102.29c-.43.98-1.26,1.18-1.3,2.13-.03.57.52.21.66,1.1.34.07,1.1-.13,1.27.02.07.06.14,1.55.35,1.92.7-.32-.03-.92.97-1.62-.38,5.85-1.96,3.74-2.59-.32-.56-.11-1.34.08-1.94,0l.64-.64c-.97-.02-1.47-.25-1.29-1.3l3.23-1.29Z"/>
      <path class="cls-2" d="M126.35,59.55c3.21,1.67,3.85,2.13,6.48,4.53h-.97c-1.81-1.61-4.05-2.66-5.51-4.53Z"/>
      <path class="cls-2" d="M105.3,16.81c-1.43,1.86-4.32,1.89-6.15,2.59,1.69-1.56,4.08-1.9,6.15-2.59Z"/>
      <path class="cls-2" d="M27.59,249.28c.39.28,1.04.11,1.31.55.5.79,1.81,4.21,2.25,5.28.04.04.58-.19,1,.21.76.72.5,2.17.62,2.38-1.51-.27-1.22-1.61-1.62-2.59-1.8-2.17-2.17-3.3-3.56-5.83Z"/>
      <path class="cls-2" d="M64.5,33.65c-1.03.78-2.21,1.76-3.24,2.59-.36-1.56,1.85-2.78,3.24-2.59Z"/>
      <path class="cls-6" d="M74.54,73.47c.94-4.79.91-3.5,1.62.32l-1.62-.32Z"/>
      <path class="cls-1" d="M74.22,33.65c-1.16.82-2.4,1.74-3.56,2.59.47-1.54,2.34-1.99,3.56-2.59Z"/>
      <path class="cls-4" d="M113.72,142.11h-.32c.18-.93-.04-2.33.97-2.91-.26.94-.4,1.94-.65,2.91Z"/>
      <path class="cls-6" d="M111.13,147.29c-.21-1.09,1.58-1.55,1.92-2.51.12-.35.2-1.88.35-2.67h.32c-1.13,4.29-.56,2.13-2.59,5.18Z"/>
      <path class="cls-2" d="M168.44,292.34c-1.02.24-1.83.51-2.91.32,1.08-.49,1.78-.33,2.91-.32Z"/>
      <path class="cls-2" d="M193.69,321.81c-1.39-.09-.9-.24-1.62-.65l1.62.65Z"/>
      <path class="cls-1" d="M155.81,229.86c-.75-.04-1.52.05-2.27,0h2.27Z"/>
      <path class="cls-2" d="M208.91,324.4c-.91-.07-1.09-.11-1.94-.32l1.94.32Z"/>
      <path class="cls-2" d="M100.12,53.4c-1.33.18-.32-.78-.32-.97.4.19.3.6.32.97Z"/>
      <path class="cls-6" d="M322.88,191.33c-.83-.49-.07-1.26,0-1.62-.01.54,0,1.08,0,1.62Z"/>
      <path class="cls-2" d="M196.28,321.16c-.47.25-1.47.61-1.94.65l1.94-.65Z"/>
      <path class="cls-2" d="M205.02,320.19l.32-1.62c-.06.29-.3,1.46-.32,1.62Z"/>
      <path class="cls-4" d="M115.01,137.58l-.65.97c.45-1.52.62-.9.65-.97Z"/>
      <path class="cls-6" d="M105.95,163.16l-.65.65c.57-.86.62-.62.65-.65Z"/>
      <path class="cls-1" d="M322.23,195.86v-1.3c-.06.41.07.89,0,1.3Z"/>
      <path class="cls-2" d="M148.36,319.54c.06-.05.53-1.9.65,0h-.65Z"/>
      <path class="cls-6" d="M199.84,252.84c-.48.14-.51.28-1.3.32l1.3-.32Z"/>
      <path class="cls-2" d="M155.16,320.51c-.63.31-.24.41-.97,0h.97Z"/>
      <path class="cls-4" d="M307.01,244.43l.32-.97c-.09.19-.12.55-.32.97Z"/>
      <path class="cls-2" d="M153.54,319.22c.01-.37-.07-.78.32-.97-.05.34.12.77-.32.97Z"/>
      <path class="cls-6" d="M110.48,147.94c.08-.12.25-.21.32-.32l-.32.32Z"/>
      <path class="cls-6" d="M193.04,253.17l.32-.32s-.12.28-.32.32Z"/>
      <path class="cls-2" d="M105.62,318.89c-.1-.1-.27-.2-.32-.32.1.11.25.2.32.32Z"/>
      <path class="cls-6" d="M192.07,253.17h-.32c.17-.42.28-.48.32,0Z"/>
      <path class="cls-2" d="M196.6,320.84c.1-.09.22-.3.32-.32-.09.11-.21.21-.32.32Z"/>
      <path class="cls-2" d="M178.15,84.16c-1.01-4.25-2.06-5.85-4.27-9.49-1.09-1.78-10.22-15.21-11.16-15.36l-.99.33c-9.87,13.68-20.18,26.28-14.99,44.59-20.67-22.7-3.21-54.29,15.55-71.87,1.13-.39,14.46,15.73,15.53,18.13l.65.97c.13.39-.12.78.65.65,9.17,14.91,12.61,32.77,2.59,48.24-1.19-.04-1.09,1.25-1.3,1.62-.05.08.05.25,0,.32-2.95.1-.65-1.76-.65-1.94v-13.28s-.58.11-.65-.22c-.24-1.26.74-3.09-.96-2.69Z"/>
      <path class="cls-2" d="M125.27,64.19c.97.67,8.02,7.56,8.23,8.47.61,2.68-.07,9.14.3,12.62,1.11,10.43,5.23,18.78,12.94,25.75-21.85.62-37.33-12.71-39.78-34.53-.76-6.75.7-13.64-1.34-20.19,6.87,1.56,13.83,3.82,19.65,7.88Z"/>
      <path class="cls-1" d="M125.7,172.22c-3.45-.45-10.02-1.21-9.32-6.23.99-7.06,18.73-7.05,24-8.06,15.48-2.96,45.21-10.06,43.92-30.39,4.12.28,7.79,3.42,8.74,7.45.54,2.26.28,4.51.32,6.8-3.8,20.22-49.86,32.52-67.35,30.76-.04-.13-.18-.31-.31-.33Z"/>
      <path class="cls-2" d="M219.27,56.31c-1.7,8.63-.17,17.01-2.04,25.64-4.09,18.92-20.52,29.9-39.4,29.4l.21-.99c7.19-5.14,12.17-14.48,13.34-23.17.63-4.62-.24-9.71.36-13.88.89-6.2,20.87-17.58,27.53-17Z"/>
      <path class="cls-1" d="M123.43,156.68c-4.15.55-9.53,1.83-10.04,6.8-1.42,1.39-2.31-5.6-2.23-6.61,1.72-23,55.99-13.66,57.56-35.68.09-1.2-1.58-4.24.26-4.25,22.09,10.33,8.61,26.61-8.31,31.32-.25.07-.51.05-.65.32-10.13,2.81-16.46,4.89-27.2,6.48l-1.62.32c-.86.12-1.73.2-2.59.32l-.65.32c-1.37.19-2.83.2-4.21.32-.13.03-.27.21-.32.34Z"/>
      <path class="cls-2" d="M166.31,71.39c6.29,8.07,10.46,15.81,8.9,26.5-3.02,20.78-23.44,19.99-25.5-.67-1.22-12.24,4.9-22.19,13.06-30.55.29.04,3.05,4.09,3.54,4.72Z"/>
      <path class="cls-4" d="M188.18,185.17c-4.94-5.93-12.43-4.61-17.28.62-3.33-5.6-13.95-6.21-17.2-.6l-1.09-.08c-1.95-3.44-7.99-4.52-11.76-3.39-.87.26-3.72,2.52-3.99,2.51-.4-.02-3.58-3.89-6.5-4.53-4.22-.92-9.41,2.18-9.84,1.92-.28-.17-1.6-3.7-3.83-5.07-3.84-2.35-10.64-1.38-9.69-8.29,1.02-7.46,6.03,2.92,7.67,4.47,6.91,6.53,28.88,3.52,37.66,1.44,2.54-.6,8.94-3.86,11.75-3.88,2.01-.02,7.21,2.1,9.75,2.55,10.71,1.87,20.33,2.04,30.92-2.02,2.33-.89,8.92-5.77,9.46-5.66,3.56.71.83,8.3-1.24,9.67-1.23.81-3.79.89-5.58,1.87-1.54.85-3.61,3.84-3.87,3.92-.24.07-3.47-1.21-4.79-1.28-3.74-.2-9.68,1.73-10.55,5.83Z"/>
      <path class="cls-1" d="M205.67,166.07c-11.13,5.24-24.16,5.09-35.94,1.94,4.6-2.96,9.72-5.15,14.22-8.28,8.66-6.03,17.66-16.08,12.33-27.33,4.78,1.27,10.53,6.13,11.31,11.19.27,1.75-.57,7.77-.42,8.15.5,1.24,4.53,1.74,4.98,5.91v1.3c-.69,3.86-3.55,5.02-6.15,7.12h-.33Z"/>
      <path class="cls-4" d="M157.11,225.64c-.47-12.13-2.48-24.47-1.44-36.56,3-5.81,11.1-4.88,13.72.81l-1.67,35.56c-.72,1.12-8.88.36-10.61.19Z"/>
      <path class="cls-2" d="M219.18,115.03c1.76,1.42,3.73,4.09,4.94,6.04-9.16-.42-17.6,4.64-26.72,4.56-8.66-.07-16.37-4.64-22.82-9.9,5.61-.59,11.64-.4,17.17-1.61,11.92-2.62,14.45-9.61,27.43.91Z"/>
      <path class="cls-4" d="M146.64,184.64c1.42.35,4.82,3.4,5.27,4.92l1.96,35.28-.54.78c-1.86-.49-8.52-.38-9.44-1.81-1.13-8.89-3.29-17.71-4.51-26.57-.24-1.72-1.26-7.56-.88-8.8.78-2.55,5.77-4.39,8.14-3.8Z"/>
      <path class="cls-4" d="M181.58,184.67c1.42.38,4.68,2.53,4.89,4.16l-6.07,35.83-9.69.99,2.08-34.66c1.64-3.61,4.39-7.51,8.79-6.32Z"/>
      <path class="cls-2" d="M105.3,116.21c2.12-1.88,4.18-3.85,6.84-4.98,10.44-4.42,12.16.97,21.26,2.94,5.25,1.13,10.63.83,15.93,1.39-6.97,8.24-17.47,10.55-27.97,9.35-4.97-.57-9.82-2.45-14.77-3.2-1.75-1.65-4.05-.61-3.14-3.39.4-1.21,2.39-.15,1.85-2.11Z"/>
      <path class="cls-4" d="M131.72,184.66c1.18.84,2.82,2.6,3.16,4.12l5.71,34.6c-.29.31-7.52-1.13-8.02-2.5l-10.03-34.66c-.39-4.53,6.35-3.58,9.18-1.56Z"/>
      <path class="cls-4" d="M201.71,183.63c.86,1.77-9.27,33.34-9.94,37.92-2.55,1.2-5.24,2.17-8.12,2.16l6.32-35.61c.42-3.77,10.13-7.76,11.74-4.47Z"/>
      <path class="cls-1" d="M162.14,126.11c-2.21,2.47-9.59,5.76-12.82,6.76-10.35,3.23-22.2,2.41-31.39,8.92,1.82-11.8,15.68-11.24,24.4-15.26,7.49-3.45,11.32-10.83,20.13-9.04,4.01.81,1.54,6.53-.32,8.62Z"/>
      <path class="cls-4" d="M129.26,220.46c-.29.33-5.93-2.5-5.82-4.04l-12.63-38.04c3.55.41,5.79,2.25,7.61,5.17l10.84,36.91Z"/>
      <path class="cls-4" d="M212.79,178.7l-12.55,39.42c-.52.74-4.38,2.9-4.93,2.35,1.11-5.09,2.37-10.19,3.72-15.22,1.26-4.68,5.25-19.97,7.61-23.15,1.31-1.75,3.89-3.41,6.15-3.4Z"/>
      <path class="cls-6" d="M178.15,84.16c1.7-.4.72,1.44.97,2.7.07.33.65.18.65.22v13.27c0,.19-2.3,2.04.65,1.94-.18.29-2.37,3.18-2.91,2.59,2.62-6.66,2.28-13.85.64-20.72Z"/>
      <path class="cls-6" d="M105.3,116.21c.54,1.96-1.45.9-1.85,2.11-.91,2.78,1.39,1.74,3.14,3.39-.88-.13-5.43,0-5.83-.33.83-2.35,2.8-3.62,4.54-5.17Z"/>
      <path class="cls-4" d="M193.04,134.99c.98-.18.62.5.65,1.12.08,1.96.04,3.74-.32,5.68-.05-2.29.21-4.54-.33-6.8Z"/>
      <path class="cls-6" d="M216.03,159.6c.08.71-.41,1.58-.29,2.06.03.12.85.74,1.26,1.51-1.38.42-2.56-3.42-.97-3.57Z"/>
      <path class="cls-6" d="M181.71,100.35c-.35.55-.36,1.32-1.3,1.62.21-.37.11-1.66,1.3-1.62Z"/>
      <path class="cls-6" d="M211.82,148.26c-.1-.89.02-1.98,0-2.91v2.91Z"/>
      <path class="cls-6" d="M213.12,151.5c.09.15.3.35.65.97-1.06.12-1.31-.03-.65-.97Z"/>
      <path class="cls-6" d="M177.83,50.48c1.01-.19.52.58.65.97.77-.1.52.44.65.65-.77.14-.52-.25-.65-.65l-.65-.97Z"/>
      <path class="cls-4" d="M132.82,155.06c-.41.06-1,.24-1.62.32l1.62-.32Z"/>
      <path class="cls-6" d="M216.03,159.27c-.06-.42.06-.88,0-1.3v1.3Z"/>
      <path class="cls-4" d="M212.15,158.95v-1.3c.08.79.18.26,0,1.3Z"/>
      <path class="cls-6" d="M211.5,142.11s-.29.45-.65-.65l.65.65Z"/>
      <path class="cls-6" d="M211.82,144.06c-.3-.12-.3-.38-.32-.65.29.12.3.38.32.65Z"/>
      <path class="cls-4" d="M160.67,148.26c-.14.28-.4.25-.65.32.14-.27.4-.25.65-.32Z"/>
      <path class="cls-4" d="M128.61,155.71s-.14.25-.65.32l.65-.32Z"/>
      <path class="cls-4" d="M126.02,172.55c-.13,0-.27-.19-.32-.32.13.01.27.19.32.32Z"/>
      <path class="cls-4" d="M212.47,150.85c-.06-.1-.53-.21-.65-.65l.65.65Z"/>
      <path class="cls-4" d="M123.43,156.68c.05-.13.19-.31.32-.32-.05.13-.18.3-.32.32Z"/>
      <path class="cls-4" d="M205.67,166.07h.32c-.15.12-.13.27-.32,0Z"/>
      <path class="cls-6" d="M204.05,270.33l-.32-.32.32.32Z"/>
      <rect class="cls-2" x="149.01" y="317.92" width=".32" height=".64"/>
      <path class="cls-4" d="M77.13,138.23l-.32.32c.07-.27-.05-.66,0-.97l.32.65Z"/>
      <path class="cls-4" d="M69.69,84.16c.56.11,1.34-.08,1.94,0l-.65.65c-.28-.19-1.05-.08-1.29-.65Z"/>
      <path class="cls-5" d="M242.26,147.62c-3.44,1.25-3.57,2.44-4.37,5.83-.02-3.18-1.17-5.02-4.38-5.67,3.2-.24,4.08-2.96,4.38-5.67-.12,2.76,1.21,5.71,4.37,5.51Z"/>
    </g>
  </g>
</svg>